:SAMPLES-PER-SECOND 30
:FULLY-SPECIFIED
:DEGREES
518
root  -51.7996 38.0531 1.33086 -129.828 -85.7247 118.497
RightUpLeg  -4.22905 -5.8395 -10.6305
RightLeg  62.0984 4.74948 9.09199
RightFoot  -1.69353 -1.27155 15.0125
RightToes  -5.8209e-011 0 -3.6325e-017
Spine  11.2526 1.0131 1.88677
Spine1  12.1127 3.57747 -9.94754
HEad  -17.0468 -1.94954 -1.08973
LeftShoulder1  1.93881 -4.06863 -19.106
LeftArm  6.07863 -53.1347 -31.7419
LeftForeArm  -25.2336 -25.6892 -6.67039
LeftHand  -0.110393 2.5978 4.11405
RightShoulder  1.26975 2.46282 14.4409
RightArm  2.24279 58.1761 45.4724
RightForeArm  -31.2222 8.46854 6.6792
RightHand  -0.162366 8.51691 -1.73372
LeftUpLeg  -16.9729 8.72515 -4.4474
LeftLeg  21.8393 -3.11185 -1.07463
LeftFoot  6.75799 -0.875305 5.23669
LeftToes  -8.31281e-010 4.41007e-011 3.74621e-011
519
root  -52.3603 38.0542 1.47869 -131.224 -85.2237 120.286
RightUpLeg  -9.17781 -6.65954 -12.0249
RightLeg  67.0891 3.85749 9.30258
RightFoot  1.40873 -1.47506 13.1479
RightToes  -5.8209e-011 0 -3.6325e-017
Spine  13.0342 0.872672 1.82918
Spine1  12.0062 3.66925 -11.1016
HEad  -18.8981 -2.89115 -0.894862
LeftShoulder1  2.01658 -4.78477 -17.7007
LeftArm  4.70916 -54.3238 -31.6917
LeftForeArm  -25.2891 -23.2441 -6.24511
LeftHand  -0.0869179 3.15556 3.76475
RightShoulder  1.30893 2.74754 14.1044
RightArm  2.0999 61.4608 45.3301
RightForeArm  -30.9172 4.80186 6.61786
RightHand  -0.208157 8.87618 -2.08175
LeftUpLeg  -17.2681 9.27222 -4.99954
LeftLeg  23.4614 -2.94321 -1.05655
LeftFoot  5.20365 -0.902962 5.98208
LeftToes  -8.31281e-010 4.41007e-011 3.74621e-011
520
root  -52.896 38.2792 1.6173 -135.028 -85.6486 124.815
RightUpLeg  -13.1119 -7.64907 -11.9851
RightLeg  68.0816 3.15584 7.94196
RightFoot  -0.782581 -1.10184 11.8485
RightToes  -5.8209e-011 0 -3.6325e-017
Spine  14.6792 0.592073 2.56034
Spine1  11.1651 3.49117 -11.0857
HEad  -20.3152 -4.367 -0.868642
LeftShoulder1  2.12687 -5.46823 -17.0621
LeftArm  2.14148 -55.381 -31.6151
LeftForeArm  -23.3619 -20.9017 -6.56388
LeftHand  -0.0562703 4.17782 3.52953
RightShoulder  1.36498 3.35329 12.9321
RightArm  0.802693 63.3533 44.7182
RightForeArm  -30.0761 1.92021 6.19355
RightHand  -0.174092 8.75482 -1.81088
LeftUpLeg  -16.8224 8.86679 -4.61064
LeftLeg  23.0182 -2.76409 -0.976331
LeftFoot  4.51619 -0.881439 6.12044
LeftToes  -8.31281e-010 4.41007e-011 3.74621e-011
521
root  -53.4108 38.5038 1.68104 -141.305 -86.2858 132.031
RightUpLeg  -16.3912 -8.17645 -11.0706
RightLeg  65.7854 2.58025 5.67581
RightFoot  -1.33839 -0.968395 10.921
RightToes  -5.8209e-011 0 -3.6325e-017
Spine  15.5819 0.436941 3.53797
Spine1  11.073 3.58156 -11.0405
HEad  -22.1637 -6.96809 -0.0765406
LeftShoulder1  2.26755 -6.51163 -15.867
LeftArm  -0.831866 -56.5223 -31.4629
LeftForeArm  -21.0542 -18.5028 -7.26587
LeftHand  -0.0593993 4.1086 3.50104
RightShoulder  1.37547 3.58575 12.3823
RightArm  -1.14973 65.1421 43.2044
RightForeArm  -28.5585 -0.466479 5.6745
RightHand  -0.0796217 8.06049 -1.0636
LeftUpLeg  -16.6764 8.48564 -3.8883
LeftLeg  22.5875 -2.71529 -0.951196
LeftFoot  3.83231 -0.803551 5.85422
LeftToes  -8.31281e-010 4.41007e-011 3.74621e-011
522
root  -53.9001 38.7804 1.70942 -149.777 -86.7233 141.748
RightUpLeg  -18.79 -8.01067 -9.92985
RightLeg  60.2695 1.77353 2.92061
RightFoot  -2.61275 -0.781313 9.98983
RightToes  -5.8209e-011 0 -3.6325e-017
Spine  16.489 0.142819 4.01945
Spine1  10.0618 3.33653 -10.7431
HEad  -23.8188 -8.33562 0.95992
LeftShoulder1  2.27778 -6.81182 -15.2843
LeftArm  -4.22532 -56.8821 -31.0887
LeftForeArm  -17.5494 -17.1479 -7.38043
LeftHand  -0.0286369 5.10741 2.59443
RightShoulder  1.43257 4.01284 11.994
RightArm  -1.97444 66.5296 43.1995
RightForeArm  -26.6489 -2.4792 5.22723
RightHand  -0.00280526 8.02388 -0.404655
LeftUpLeg  -16.5024 8.55327 -3.20743
LeftLeg  21.3828 -2.71285 -1.00998
LeftFoot  3.81956 -0.852183 6.22228
LeftToes  -8.31281e-010 4.41007e-011 3.74621e-011
